<svg xmlns="http://www.w3.org/2000/svg" version="1.1" xmlns:xlink="http://www.w3.org/1999/xlink" xmlns:svgjs="http://svgjs.dev/svgjs" width="1000" height="1125" viewBox="0 0 1000 1125"><g transform="matrix(1,0,0,1,1.7053025658242404e-13,0)"><svg viewBox="0 0 320 360" data-background-color="#ffffff" preserveAspectRatio="xMidYMid meet" height="1125" width="1000" xmlns="http://www.w3.org/2000/svg" xmlns:xlink="http://www.w3.org/1999/xlink"><g id="tight-bounds" transform="matrix(1,0,0,1,0,0)"><svg viewBox="0 0 320 360" height="360" width="320"><g><svg></svg></g><g><svg viewBox="0 0 320 360" height="360" width="320"><g><path xmlns="http://www.w3.org/2000/svg" d="M20.961 227.22l3.726 4.658-1.863-6.056c-0.466-2.795-3.726 0.466-1.863 1.398M25.153 224.425c1.397 2.329 2.795 4.658 2.795 6.987 0 3.261 2.795 4.658 5.123 5.589-3.261-3.726-5.124-13.974-7.918-12.576M204.017 26.929c7.918 0 15.371-0.932 23.756 0.931 20.495 5.124 37.729 15.371 49.374 29.811l32.606 52.169c1.397 13.042 4.192 27.482 3.726 43.319 3.261 0 2.795-4.658 6.521-5.59-3.726 9.316-5.59 20.961-6.521 34.469-2.329-7.453 0-18.632 0.466-24.687-3.261 5.124-5.124 1.397-5.124-0.932 0.466-3.726-1.397-3.261-2.795-4.658-5.124-4.658-8.384-9.782-12.11-17.7 2.329-6.055 2.795-14.905-4.658-19.563-2.329-1.397-5.124-3.726-6.521-7.453-1.863-5.124-5.124-11.179-4.193-19.097 0.466-2.329-6.987 5.124-11.179 1.863-18.166-12.576-36.332-27.016-58.224-39.127-11.645 0-20.029-4.192-24.221-9.316-3.726-4.658-0.932-10.713 4.658-11.179 3.261 0 6.987-0.932 9.782 0.932 0.466-1.863 2.329-4.192 4.657-4.192M157.904 16.215l0.932 0.466c4.658 0.932 6.987 7.453 12.11 5.124 0 3.261 0.466 6.521-0.466 8.85-1.397 3.726-5.59 3.726-8.85 3.726-31.208-1.863-49.374 11.179-68.471 22.358-5.124 3.261-10.713 5.59-14.906 9.782-20.029 18.632-41.921 35.866-47.045 70.335l-4.192 38.195c-0.466 4.192-5.124 8.384-4.192 13.508l3.26 22.824c-3.261-3.261-5.124 0.932-4.192 2.795 0.466 1.397 2.329 6.055 5.124 1.863 3.726 6.987 7.453 20.495 12.576 26.55 15.837 18.632 36.332 35.4 53.101 52.169 4.192-0.932 7.453-0.932 8.384-3.727 1.397 2.795-1.397 5.59-3.726 6.056 7.453 4.658 15.837 8.85 27.016 9.781 14.44 0.932 27.948 3.261 40.524 6.522 6.521-1.863 13.042-2.795 20.029-3.261 2.329 0 3.726-3.726 6.521-4.658l0.466-4.658c2.795 4.192 2.329-1.397 0.466-4.192 3.261 2.795 4.192 5.124 5.589 6.987 0-1.397 3.726-6.521 3.727-0.466l0.931-6.055c1.397-0.932 1.863 5.124 3.261 0.931 1.397-4.192 4.192-0.932 6.987-2.329-0.932 1.863-0.466 5.59 2.794 3.261l3.727-3.261c2.329 5.59 6.055 3.261 7.918 2.329 20.495-13.042 40.99-28.413 60.553-43.784l-0.466 6.055 2.329-7.453c2.329 2.329 4.192 0.466 5.124-0.931 2.795-4.658 6.521-9.316 12.577-13.508-7.453 20.029-16.303 35.866-27.482 48.908l-4.658 5.59c0 3.261-0.932 7.453-4.658 7.918-1.863 0.466-5.59-0.932-8.384 1.863-1.397 1.863 3.261 5.59-0.466 2.795-3.261-2.329-6.521 0-10.248 0.932-2.795 0.932 1.863 3.726 2.795 5.589 0.932 1.863 1.863 3.726 1.398 6.056l-5.124-5.59c-6.055 3.261-9.782 9.316-14.906 13.974-2.329 1.863-1.397 5.124-1.397 7.918-3.261 0-6.987-0.932-8.85 0.932-1.397 1.863-0.932 4.658-0.932 7.453-4.658-0.466-5.124-7.453-9.315-6.056-4.192 0.932-8.85 1.397-12.577 3.727 2.795 5.59-4.658 2.329-3.726 3.26-6.987-4.192-13.042-7.453-20.495-4.658-15.837-5.124-35.4-2.795-49.84-0.931 0-2.329 0.466-4.658-0.466-5.124-0.932 2.329-3.726 1.397-3.26 1.397-8.85-6.055-17.7-9.782-27.016-14.905-8.384 0.932-16.303-3.261-18.632-5.59-6.521-6.055-13.974-2.795-20.029-4.192-13.042-3.261-17.7-16.769-19.098-26.084-0.932-4.658-4.658-6.521-6.055-6.056-6.055-19.563-15.371-37.263-22.824-55.429-1.863-4.658-1.397-9.316-1.397-14.44 2.329 0.932 4.658 0.466 4.192-2.794-2.329-15.371-7.918-27.016-13.974-38.195 3.261-15.837 3.726-34.469 11.179-48.443 6.521-12.576 18.632-19.098 27.016-29.811 2.795-3.726 2.795-8.85 5.59-12.11 9.316-9.316 18.632-19.098 28.879-27.482 4.658-3.726 10.247 0 17.234-1.397 2.329-8.384 11.645-15.837 20.495-13.508 3.726 0.932 11.179-8.85 13.508-9.782 3.726-1.397 1.863 3.726 1.863 6.987 8.85-6.987 20.961-10.713 32.14-14.906" fill="#e65728" fill-rule="nonzero" stroke="none" stroke-width="1" stroke-linecap="butt" stroke-linejoin="miter" stroke-miterlimit="10" stroke-dasharray="" stroke-dashoffset="0" font-family="none" font-weight="none" font-size="none" text-anchor="none" style="mix-blend-mode: normal" data-fill-palette-color="tertiary"></path></g><g transform="matrix(1,0,0,1,103.00996677740864,90)"><svg viewBox="0 0 113.98006644518271 180" height="180" width="113.98006644518271"><g><svg viewBox="0 0 113.98006644518271 180" height="180" width="113.98006644518271"><g><svg viewBox="0 0 113.98006644518271 180" height="180" width="113.98006644518271"><g><svg viewBox="0 0 113.98006644518271 180" height="180" width="113.98006644518271"><g id="textblocktransform"><svg viewBox="0 0 113.98006644518271 180" height="180" width="113.98006644518271" id="textblock"><g><svg viewBox="0 0 113.98006644518271 180" height="180" width="113.98006644518271"><g transform="matrix(1,0,0,1,0,0)"><svg width="113.98006644518271" viewBox="3.6100001335144043 -36.25 23.26999855041504 36.7400016784668" height="180" data-palette-color="#e65728"><path d="M14.82-3.3L14.82-3.3Q16.43-3.3 17.8-3.72 19.17-4.15 20.14-4.94 21.12-5.74 21.67-6.84 22.22-7.93 22.22-9.28L22.22-9.28Q22.22-10.86 21.47-11.96 20.73-13.06 19.52-13.89 18.31-14.72 16.75-15.37 15.19-16.02 13.57-16.69 11.96-17.36 10.4-18.14 8.84-18.92 7.63-20.04 6.42-21.17 5.68-22.69 4.93-24.22 4.93-26.39L4.93-26.39Q4.93-28.69 5.81-30.52 6.69-32.35 8.26-33.63 9.84-34.91 12-35.58 14.16-36.25 16.75-36.25L16.75-36.25Q18.33-36.25 20.73-35.95 23.12-35.64 25.81-34.84L25.81-34.84 25-30.59 24.51-30.35Q23.17-30.96 21.9-31.37 20.63-31.79 19.51-32.03 18.38-32.28 17.43-32.37 16.48-32.47 15.77-32.47L15.77-32.47Q14.33-32.47 13.17-32.12 12.01-31.76 11.19-31.09 10.38-30.42 9.92-29.46 9.47-28.49 9.47-27.27L9.47-27.27Q9.47-25.63 10.22-24.49 10.96-23.34 12.19-22.46 13.43-21.58 14.99-20.9 16.55-20.21 18.18-19.53 19.8-18.85 21.36-18.07 22.92-17.29 24.16-16.25 25.39-15.21 26.14-13.79 26.88-12.38 26.88-10.4L26.88-10.4Q26.88-8.23 25.94-6.26 25-4.3 23.3-2.8 21.61-1.29 19.23-0.4 16.85 0.49 13.96 0.49L13.96 0.49Q12.74 0.49 11.41 0.32 10.08 0.15 8.74-0.16 7.4-0.46 6.09-0.9 4.79-1.34 3.61-1.88L3.61-1.88 4.44-6.15 4.93-6.4Q7.42-4.96 9.97-4.13 12.52-3.3 14.82-3.3Z" opacity="1" transform="matrix(1,0,0,1,0,0)" fill="#e65728" class="wordmark-text-0" data-fill-palette-color="primary" id="text-0"></path></svg></g></svg></g></svg></g></svg></g><g></g></svg></g></svg></g></svg></g></svg></g><defs></defs></svg><rect width="320" height="360" fill="none" stroke="none" visibility="hidden"></rect></g></svg></g></svg>